<svg width="24" height="28" viewBox="0 0 24 28" fill="none" xmlns="http://www.w3.org/2000/svg">
<path d="M22.5 24.5H21V20.75C20.9989 19.7558 20.6034 18.8026 19.9004 18.0996C19.1974 17.3966 18.2442 17.0011 17.25 17V15.5C18.6419 15.5015 19.9764 16.0552 20.9606 17.0394C21.9448 18.0236 22.4985 19.3581 22.5 20.75V24.5Z" fill="#121F24"/>
<path d="M16.5 24.5H15V20.75C14.9988 19.7558 14.6034 18.8027 13.9004 18.0996C13.1973 17.3966 12.2442 17.0012 11.25 17H6.75C5.7558 17.0012 4.80265 17.3966 4.09964 18.0996C3.39664 18.8027 3.00117 19.7558 3 20.75V24.5H1.5V20.75C1.50163 19.3581 2.05527 18.0237 3.03949 17.0395C4.0237 16.0553 5.35811 15.5016 6.75 15.5H11.25C12.6419 15.5016 13.9763 16.0553 14.9605 17.0395C15.9447 18.0237 16.4984 19.3581 16.5 20.75V24.5Z" fill="#121F24"/>
<path d="M15 3.5V5C15.9946 5 16.9484 5.39509 17.6517 6.09835C18.3549 6.80161 18.75 7.75544 18.75 8.75C18.75 9.74456 18.3549 10.6984 17.6517 11.4017C16.9484 12.1049 15.9946 12.5 15 12.5V14C16.3924 14 17.7277 13.4469 18.7123 12.4623C19.6969 11.4777 20.25 10.1424 20.25 8.75C20.25 7.35761 19.6969 6.02226 18.7123 5.03769C17.7277 4.05312 16.3924 3.5 15 3.5Z" fill="#121F24"/>
<path d="M9 5C9.74168 5 10.4667 5.21993 11.0834 5.63199C11.7001 6.04404 12.1807 6.62971 12.4645 7.31494C12.7484 8.00016 12.8226 8.75416 12.6779 9.48159C12.5333 10.209 12.1761 10.8772 11.6517 11.4017C11.1272 11.9261 10.459 12.2833 9.73159 12.4279C9.00416 12.5726 8.25016 12.4984 7.56494 12.2145C6.87971 11.9307 6.29404 11.4501 5.88199 10.8334C5.46993 10.2167 5.25 9.49168 5.25 8.75C5.25 7.75544 5.64509 6.80161 6.34835 6.09835C7.05161 5.39509 8.00544 5 9 5ZM9 3.5C7.96165 3.5 6.94661 3.80791 6.08326 4.38478C5.2199 4.96166 4.54699 5.7816 4.14963 6.74091C3.75227 7.70022 3.6483 8.75582 3.85088 9.77422C4.05345 10.7926 4.55346 11.7281 5.28769 12.4623C6.02192 13.1965 6.95738 13.6965 7.97578 13.8991C8.99418 14.1017 10.0498 13.9977 11.0091 13.6004C11.9684 13.203 12.7883 12.5301 13.3652 11.6667C13.9421 10.8034 14.25 9.78835 14.25 8.75C14.25 7.35761 13.6969 6.02226 12.7123 5.03769C11.7277 4.05312 10.3924 3.5 9 3.5Z" fill="#121F24"/>
</svg>
